{"title":"South Park Season 1-15","uid":7642691,"size":34632469072,"categoryP":"video","categoryS":"tv_shows","magnet":"?xt=urn:btih:7f8bbd7e6081cec186e69073dae95b175452ea37&amp;dn=South+Park+Season+1-15&amp;tr=udp%3A%2F%2Ftracker.openbittorrent.com%3A80&amp;tr=udp%3A%2F%2Fopen.demonii.com%3A1337&amp;tr=udp%3A%2F%2Ftracker.coppersurfer.tk%3A6969&amp;tr=udp%3A%2F%2Fexodus.desync.com%3A6969","seeders":0,"leechers":1,"uploader":"freedomdwarf1","files":222,"time":1347820130,"description":"South Park Season 1-15\n\nRe-coded, slightly down-sized, cleaned up.\n\nFormat                                   : AVI\nFormat/Info                              : Audio Video Interleave\nFile size                                : 150 MiB\nDuration                                 : 22mn ~ish\nOverall bit rate                         : 947 Kbps\n\nVideo\nID                                       : 0\nFormat                                   : MPEG-4 Visual\nFormat settings, BVOP                    : No\nFormat settings, QPel                    : No\nFormat settings, GMC                     : No warppoints\nFormat settings, Matrix                  : Default (H.263)\nCodec ID                                 : DX50\nCodec ID/Hint                            : DivX 5\nDuration                                 : 22mn ~ish\nBit rate                                 : 808 Kbps\nWidth                                    : 576 pixels\nHeight                                   : 432 pixels\nDisplay aspect ratio                     : 4:3\nFrame rate                               : 29.970 fps\nColor space                              : YUV\nChroma subsampling                       : 4:2:0\nBit depth                                : 8 bits\nScan type                                : Interlaced\nScan order                               : Bottom Field First\nCompression mode                         : Lossy\nBits/(Pixel*Frame)                       : 0.108\nStream size                              : 127 MiB (85%)\nWriting library                          : DivX 6.8.5 (UTC 2009-08-20)\n\nAudio\nID                                       : 1\nFormat                                   : AC-3\nFormat/Info                              : Audio Coding 3\nMode extension                           : CM (complete main)\nCodec ID                                 : 2000\nDuration                                 : 22mn ~ish\nBit rate mode                            : Constant\nBit rate                                 : 128 Kbps\nChannel(s)                               : 2 channels\nChannel positions                        : Front: L R\nSampling rate                            : 48.0 KHz\nBit depth                                : 16 bits\nCompression mode                         : Lossy\nStream size                              : 20.2 MiB (14%)\nAlignment                                : Aligned on interleaves\nInterleave, duration                     : 33 ms (1.00 video frame)\nInterleave, preload duration             : 512 ms\n\n","torrent":{"xt":"urn:btih:7f8bbd7e6081cec186e69073dae95b175452ea37","amp;dn":"South+Park+Season+1-15","amp;tr":["udp%3A%2F%2Ftracker.openbittorrent.com%3A80","udp%3A%2F%2Fopen.demonii.com%3A1337","udp%3A%2F%2Ftracker.coppersurfer.tk%3A6969","udp%3A%2F%2Fexodus.desync.com%3A6969"],"infoHash":"7f8bbd7e6081cec186e69073dae95b175452ea37","infoHashBuffer":{"type":"Buffer","data":[127,139,189,126,96,129,206,193,134,230,144,115,218,233,91,23,84,82,234,55]},"announce":[],"urlList":[]}}